<svg xmlns:xlink="http://www.w3.org/1999/xlink" width="62.082ex" height="69.843ex" style="vertical-align: -65.338ex; margin-left: -0.114ex;" viewBox="-49 -1939.5 26729.5 30071" role="img" focusable="false" xmlns="http://www.w3.org/2000/svg">
<defs>
<path stroke-width="1" id="E1-MJMAIN-7B" d="M434 -231Q434 -244 428 -250H410Q281 -250 230 -184Q225 -177 222 -172T217 -161T213 -148T211 -133T210 -111T209 -84T209 -47T209 0Q209 21 209 53Q208 142 204 153Q203 154 203 155Q189 191 153 211T82 231Q71 231 68 234T65 250T68 266T82 269Q116 269 152 289T203 345Q208 356 208 377T209 529V579Q209 634 215 656T244 698Q270 724 324 740Q361 748 377 749Q379 749 390 749T408 750H428Q434 744 434 732Q434 719 431 716Q429 713 415 713Q362 710 332 689T296 647Q291 634 291 499V417Q291 370 288 353T271 314Q240 271 184 255L170 250L184 245Q202 239 220 230T262 196T290 137Q291 131 291 1Q291 -134 296 -147Q306 -174 339 -192T415 -213Q429 -213 431 -216Q434 -219 434 -231Z"></path>
<path stroke-width="1" id="E1-MJMATHI-70" d="M23 287Q24 290 25 295T30 317T40 348T55 381T75 411T101 433T134 442Q209 442 230 378L240 387Q302 442 358 442Q423 442 460 395T497 281Q497 173 421 82T249 -10Q227 -10 210 -4Q199 1 187 11T168 28L161 36Q160 35 139 -51T118 -138Q118 -144 126 -145T163 -148H188Q194 -155 194 -157T191 -175Q188 -187 185 -190T172 -194Q170 -194 161 -194T127 -193T65 -192Q-5 -192 -24 -194H-32Q-39 -187 -39 -183Q-37 -156 -26 -148H-6Q28 -147 33 -136Q36 -130 94 103T155 350Q156 355 156 364Q156 405 131 405Q109 405 94 377T71 316T59 280Q57 278 43 278H29Q23 284 23 287ZM178 102Q200 26 252 26Q282 26 310 49T356 107Q374 141 392 215T411 325V331Q411 405 350 405Q339 405 328 402T306 393T286 380T269 365T254 350T243 336T235 326L232 322Q232 321 229 308T218 264T204 212Q178 106 178 102Z"></path>
<path stroke-width="1" id="E1-MJMATHI-6E" d="M21 287Q22 293 24 303T36 341T56 388T89 425T135 442Q171 442 195 424T225 390T231 369Q231 367 232 367L243 378Q304 442 382 442Q436 442 469 415T503 336T465 179T427 52Q427 26 444 26Q450 26 453 27Q482 32 505 65T540 145Q542 153 560 153Q580 153 580 145Q580 144 576 130Q568 101 554 73T508 17T439 -10Q392 -10 371 17T350 73Q350 92 386 193T423 345Q423 404 379 404H374Q288 404 229 303L222 291L189 157Q156 26 151 16Q138 -11 108 -11Q95 -11 87 -5T76 7T74 17Q74 30 112 180T152 343Q153 348 153 366Q153 405 129 405Q91 405 66 305Q60 285 60 284Q58 278 41 278H27Q21 284 21 287Z"></path>
<path stroke-width="1" id="E1-MJMAIN-2B" d="M56 237T56 250T70 270H369V420L370 570Q380 583 389 583Q402 583 409 568V270H707Q722 262 722 250T707 230H409V-68Q401 -82 391 -82H389H387Q375 -82 369 -68V230H70Q56 237 56 250Z"></path>
<path stroke-width="1" id="E1-MJMAIN-31" d="M213 578L200 573Q186 568 160 563T102 556H83V602H102Q149 604 189 617T245 641T273 663Q275 666 285 666Q294 666 302 660V361L303 61Q310 54 315 52T339 48T401 46H427V0H416Q395 3 257 3Q121 3 100 0H88V46H114Q136 46 152 46T177 47T193 50T201 52T207 57T213 61V578Z"></path>
<path stroke-width="1" id="E1-MJMAIN-3D" d="M56 347Q56 360 70 367H707Q722 359 722 347Q722 336 708 328L390 327H72Q56 332 56 347ZM56 153Q56 168 72 173H708Q722 163 722 153Q722 140 707 133H70Q56 140 56 153Z"></path>
<path stroke-width="1" id="E1-MJMATHI-76" d="M173 380Q173 405 154 405Q130 405 104 376T61 287Q60 286 59 284T58 281T56 279T53 278T49 278T41 278H27Q21 284 21 287Q21 294 29 316T53 368T97 419T160 441Q202 441 225 417T249 361Q249 344 246 335Q246 329 231 291T200 202T182 113Q182 86 187 69Q200 26 250 26Q287 26 319 60T369 139T398 222T409 277Q409 300 401 317T383 343T365 361T357 383Q357 405 376 424T417 443Q436 443 451 425T467 367Q467 340 455 284T418 159T347 40T241 -11Q177 -11 139 22Q102 54 102 117Q102 148 110 181T151 298Q173 362 173 380Z"></path>
<path stroke-width="1" id="E1-MJMATHI-64" d="M366 683Q367 683 438 688T511 694Q523 694 523 686Q523 679 450 384T375 83T374 68Q374 26 402 26Q411 27 422 35Q443 55 463 131Q469 151 473 152Q475 153 483 153H487H491Q506 153 506 145Q506 140 503 129Q490 79 473 48T445 8T417 -8Q409 -10 393 -10Q359 -10 336 5T306 36L300 51Q299 52 296 50Q294 48 292 46Q233 -10 172 -10Q117 -10 75 30T33 157Q33 205 53 255T101 341Q148 398 195 420T280 442Q336 442 364 400Q369 394 369 396Q370 400 396 505T424 616Q424 629 417 632T378 637H357Q351 643 351 645T353 664Q358 683 366 683ZM352 326Q329 405 277 405Q242 405 210 374T160 293Q131 214 119 129Q119 126 119 118T118 106Q118 61 136 44T179 26Q233 26 290 98L298 109L352 326Z"></path>
<path stroke-width="1" id="E1-MJMAIN-30" d="M96 585Q152 666 249 666Q297 666 345 640T423 548Q460 465 460 320Q460 165 417 83Q397 41 362 16T301 -15T250 -22Q224 -22 198 -16T137 16T82 83Q39 165 39 320Q39 494 96 585ZM321 597Q291 629 250 629Q208 629 178 597Q153 571 145 525T137 333Q137 175 145 125T181 46Q209 16 250 16Q290 16 318 46Q347 76 354 130T362 333Q362 478 354 524T321 597Z"></path>
<path stroke-width="1" id="E1-MJSZ4-7B" d="M661 -1243L655 -1249H622L604 -1240Q503 -1190 434 -1107T348 -909Q346 -897 346 -499L345 -98L343 -82Q335 3 287 87T157 223Q146 232 145 236Q144 240 144 250Q144 265 145 268T157 278Q242 333 288 417T343 583L345 600L346 1001Q346 1398 348 1410Q379 1622 600 1739L622 1750H655L661 1744V1727V1721Q661 1712 661 1710T657 1705T648 1700T630 1690T602 1668Q589 1659 574 1643T531 1593T484 1508T459 1398Q458 1389 458 1001Q458 614 457 605Q441 435 301 316Q254 277 202 251L250 222Q260 216 301 185Q443 66 457 -104Q458 -113 458 -501Q458 -888 459 -897Q463 -944 478 -988T509 -1060T548 -1114T580 -1149T602 -1167Q620 -1183 634 -1192T653 -1202T659 -1207T661 -1220V-1226V-1243Z"></path>
<path stroke-width="1" id="E1-MJMAIN-32" d="M109 429Q82 429 66 447T50 491Q50 562 103 614T235 666Q326 666 387 610T449 465Q449 422 429 383T381 315T301 241Q265 210 201 149L142 93L218 92Q375 92 385 97Q392 99 409 186V189H449V186Q448 183 436 95T421 3V0H50V19V31Q50 38 56 46T86 81Q115 113 136 137Q145 147 170 174T204 211T233 244T261 278T284 308T305 340T320 369T333 401T340 431T343 464Q343 527 309 573T212 619Q179 619 154 602T119 569T109 550Q109 549 114 549Q132 549 151 535T170 489Q170 464 154 447T109 429Z"></path>
<path stroke-width="1" id="E1-MJSZ2-2211" d="M60 948Q63 950 665 950H1267L1325 815Q1384 677 1388 669H1348L1341 683Q1320 724 1285 761Q1235 809 1174 838T1033 881T882 898T699 902H574H543H251L259 891Q722 258 724 252Q725 250 724 246Q721 243 460 -56L196 -356Q196 -357 407 -357Q459 -357 548 -357T676 -358Q812 -358 896 -353T1063 -332T1204 -283T1307 -196Q1328 -170 1348 -124H1388Q1388 -125 1381 -145T1356 -210T1325 -294L1267 -449L666 -450Q64 -450 61 -448Q55 -446 55 -439Q55 -437 57 -433L590 177Q590 178 557 222T452 366T322 544L56 909L55 924Q55 945 60 948Z"></path>
<path stroke-width="1" id="E1-MJMATHI-6D" d="M21 287Q22 293 24 303T36 341T56 388T88 425T132 442T175 435T205 417T221 395T229 376L231 369Q231 367 232 367L243 378Q303 442 384 442Q401 442 415 440T441 433T460 423T475 411T485 398T493 385T497 373T500 364T502 357L510 367Q573 442 659 442Q713 442 746 415T780 336Q780 285 742 178T704 50Q705 36 709 31T724 26Q752 26 776 56T815 138Q818 149 821 151T837 153Q857 153 857 145Q857 144 853 130Q845 101 831 73T785 17T716 -10Q669 -10 648 17T627 73Q627 92 663 193T700 345Q700 404 656 404H651Q565 404 506 303L499 291L466 157Q433 26 428 16Q415 -11 385 -11Q372 -11 364 -4T353 8T350 18Q350 29 384 161L420 307Q423 322 423 345Q423 404 379 404H374Q288 404 229 303L222 291L189 157Q156 26 151 16Q138 -11 108 -11Q95 -11 87 -5T76 7T74 17Q74 30 112 181Q151 335 151 342Q154 357 154 369Q154 405 129 405Q107 405 92 377T69 316T57 280Q55 278 41 278H27Q21 284 21 287Z"></path>
<path stroke-width="1" id="E1-MJMAIN-28" d="M94 250Q94 319 104 381T127 488T164 576T202 643T244 695T277 729T302 750H315H319Q333 750 333 741Q333 738 316 720T275 667T226 581T184 443T167 250T184 58T225 -81T274 -167T316 -220T333 -241Q333 -250 318 -250H315H302L274 -226Q180 -141 137 -14T94 250Z"></path>
<path stroke-width="1" id="E1-MJMAIN-2212" d="M84 237T84 250T98 270H679Q694 262 694 250T679 230H98Q84 237 84 250Z"></path>
<path stroke-width="1" id="E1-MJMATHI-61" d="M33 157Q33 258 109 349T280 441Q331 441 370 392Q386 422 416 422Q429 422 439 414T449 394Q449 381 412 234T374 68Q374 43 381 35T402 26Q411 27 422 35Q443 55 463 131Q469 151 473 152Q475 153 483 153H487Q506 153 506 144Q506 138 501 117T481 63T449 13Q436 0 417 -8Q409 -10 393 -10Q359 -10 336 5T306 36L300 51Q299 52 296 50Q294 48 292 46Q233 -10 172 -10Q117 -10 75 30T33 157ZM351 328Q351 334 346 350T323 385T277 405Q242 405 210 374T160 293Q131 214 119 129Q119 126 119 118T118 106Q118 61 136 44T179 26Q217 26 254 59T298 110Q300 114 325 217T351 328Z"></path>
<path stroke-width="1" id="E1-MJMAIN-29" d="M60 749L64 750Q69 750 74 750H86L114 726Q208 641 251 514T294 250Q294 182 284 119T261 12T224 -76T186 -143T145 -194T113 -227T90 -246Q87 -249 86 -250H74Q66 -250 63 -250T58 -247T55 -238Q56 -237 66 -225Q221 -64 221 250T66 725Q56 737 55 738Q55 746 60 749Z"></path>
<path stroke-width="1" id="E1-MJSZ3-28" d="M701 -940Q701 -943 695 -949H664Q662 -947 636 -922T591 -879T537 -818T475 -737T412 -636T350 -511T295 -362T250 -186T221 17T209 251Q209 962 573 1361Q596 1386 616 1405T649 1437T664 1450H695Q701 1444 701 1441Q701 1436 681 1415T629 1356T557 1261T476 1118T400 927T340 675T308 359Q306 321 306 250Q306 -139 400 -430T690 -924Q701 -936 701 -940Z"></path>
<path stroke-width="1" id="E1-MJSZ3-29" d="M34 1438Q34 1446 37 1448T50 1450H56H71Q73 1448 99 1423T144 1380T198 1319T260 1238T323 1137T385 1013T440 864T485 688T514 485T526 251Q526 134 519 53Q472 -519 162 -860Q139 -885 119 -904T86 -936T71 -949H56Q43 -949 39 -947T34 -937Q88 -883 140 -813Q428 -430 428 251Q428 453 402 628T338 922T245 1146T145 1309T46 1425Q44 1427 42 1429T39 1433T36 1436L34 1438Z"></path>
<path stroke-width="1" id="E1-MJSZ4-28" d="M758 -1237T758 -1240T752 -1249H736Q718 -1249 717 -1248Q711 -1245 672 -1199Q237 -706 237 251T672 1700Q697 1730 716 1749Q718 1750 735 1750H752Q758 1744 758 1741Q758 1737 740 1713T689 1644T619 1537T540 1380T463 1176Q348 802 348 251Q348 -242 441 -599T744 -1218Q758 -1237 758 -1240Z"></path>
<path stroke-width="1" id="E1-MJSZ4-29" d="M33 1741Q33 1750 51 1750H60H65Q73 1750 81 1743T119 1700Q554 1207 554 251Q554 -707 119 -1199Q76 -1250 66 -1250Q65 -1250 62 -1250T56 -1249Q55 -1249 53 -1249T49 -1250Q33 -1250 33 -1239Q33 -1236 50 -1214T98 -1150T163 -1052T238 -910T311 -727Q443 -335 443 251Q443 402 436 532T405 831T339 1142T224 1438T50 1716Q33 1737 33 1741Z"></path>
</defs>
<g stroke="currentColor" fill="currentColor" stroke-width="0" transform="matrix(1 0 0 -1 0 0)">
 <use xlink:href="#E1-MJSZ4-7B"></use>
<g transform="translate(973,0)">
<g transform="translate(-11,0)">
<g transform="translate(0,676)">
 <use xlink:href="#E1-MJMATHI-70" x="0" y="0"></use>
<g transform="translate(503,-150)">
 <use transform="scale(0.707)" xlink:href="#E1-MJMATHI-6E" x="0" y="0"></use>
 <use transform="scale(0.707)" xlink:href="#E1-MJMAIN-2B" x="600" y="0"></use>
 <use transform="scale(0.707)" xlink:href="#E1-MJMAIN-31" x="1379" y="0"></use>
</g>
</g>
<g transform="translate(975,-1149)">
 <use xlink:href="#E1-MJMATHI-70" x="0" y="0"></use>
 <use transform="scale(0.707)" xlink:href="#E1-MJMAIN-30" x="712" y="-213"></use>
</g>
</g>
<g transform="translate(1922,0)">
<g transform="translate(0,676)">
 <use xlink:href="#E1-MJMAIN-3D" x="277" y="0"></use>
<g transform="translate(1334,0)">
 <use xlink:href="#E1-MJMATHI-70" x="0" y="0"></use>
 <use transform="scale(0.707)" xlink:href="#E1-MJMATHI-6E" x="712" y="-213"></use>
</g>
 <use xlink:href="#E1-MJMAIN-2B" x="2584" y="0"></use>
<g transform="translate(3362,0)">
<g transform="translate(342,0)">
<rect stroke="none" width="2034" height="60" x="0" y="220"></rect>
<g transform="translate(60,728)">
 <use xlink:href="#E1-MJMATHI-76" x="0" y="0"></use>
<g transform="translate(485,-150)">
 <use transform="scale(0.707)" xlink:href="#E1-MJMATHI-6E" x="0" y="0"></use>
 <use transform="scale(0.707)" xlink:href="#E1-MJMAIN-2B" x="600" y="0"></use>
 <use transform="scale(0.707)" xlink:href="#E1-MJMAIN-31" x="1379" y="0"></use>
</g>
</g>
 <use xlink:href="#E1-MJMATHI-64" x="755" y="-715"></use>
</g>
</g>
</g>
<g transform="translate(0,-1149)">
 <use xlink:href="#E1-MJMAIN-3D" x="277" y="0"></use>
 <use xlink:href="#E1-MJMAIN-30" x="1334" y="0"></use>
</g>
</g>
</g>
<g transform="translate(0,-15141)">
<g transform="translate(-11,0)">
<g transform="translate(70,12561)">
 <use xlink:href="#E1-MJMATHI-70" x="0" y="0"></use>
 <use transform="scale(0.707)" xlink:href="#E1-MJMAIN-30" x="712" y="-213"></use>
</g>
<g transform="translate(70,10940)">
 <use xlink:href="#E1-MJMATHI-70" x="0" y="0"></use>
 <use transform="scale(0.707)" xlink:href="#E1-MJMAIN-31" x="712" y="-213"></use>
</g>
<g transform="translate(70,8654)">
 <use xlink:href="#E1-MJMATHI-70" x="0" y="0"></use>
 <use transform="scale(0.707)" xlink:href="#E1-MJMAIN-32" x="712" y="-213"></use>
</g>
<g transform="translate(0,6064)">
 <use xlink:href="#E1-MJMATHI-70" x="0" y="0"></use>
 <use transform="scale(0.707)" xlink:href="#E1-MJMATHI-6E" x="712" y="-213"></use>
</g>
</g>
<g transform="translate(1017,0)">
<g transform="translate(0,12561)">
 <use xlink:href="#E1-MJMAIN-3D" x="277" y="0"></use>
 <use xlink:href="#E1-MJMAIN-30" x="1334" y="0"></use>
</g>
<g transform="translate(0,10940)">
 <use xlink:href="#E1-MJMAIN-3D" x="277" y="0"></use>
<g transform="translate(1056,0)">
<g transform="translate(397,0)">
<rect stroke="none" width="1059" height="60" x="0" y="220"></rect>
<g transform="translate(60,676)">
 <use xlink:href="#E1-MJMATHI-76" x="0" y="0"></use>
 <use transform="scale(0.707)" xlink:href="#E1-MJMAIN-31" x="686" y="-213"></use>
</g>
 <use xlink:href="#E1-MJMATHI-64" x="267" y="-715"></use>
</g>
</g>
</g>
<g transform="translate(0,8654)">
 <use xlink:href="#E1-MJMAIN-3D" x="277" y="0"></use>
<g transform="translate(1056,0)">
<g transform="translate(397,0)">
<rect stroke="none" width="3221" height="60" x="0" y="220"></rect>
<g transform="translate(60,676)">
 <use xlink:href="#E1-MJMATHI-76" x="0" y="0"></use>
 <use transform="scale(0.707)" xlink:href="#E1-MJMAIN-31" x="686" y="-213"></use>
 <use xlink:href="#E1-MJMAIN-2B" x="1161" y="0"></use>
<g transform="translate(2162,0)">
 <use xlink:href="#E1-MJMATHI-76" x="0" y="0"></use>
 <use transform="scale(0.707)" xlink:href="#E1-MJMAIN-32" x="686" y="-213"></use>
</g>
</g>
 <use xlink:href="#E1-MJMATHI-64" x="1349" y="-715"></use>
</g>
</g>
</g>
<g transform="translate(0,6064)">
 <use xlink:href="#E1-MJMAIN-3D" x="277" y="0"></use>
<g transform="translate(1056,0)">
<g transform="translate(397,0)">
<rect stroke="none" width="643" height="60" x="0" y="220"></rect>
 <use xlink:href="#E1-MJMAIN-31" x="71" y="676"></use>
 <use xlink:href="#E1-MJMATHI-64" x="60" y="-715"></use>
</g>
</g>
<g transform="translate(2384,0)">
 <use xlink:href="#E1-MJSZ2-2211" x="40" y="0"></use>
<g transform="translate(0,-1090)">
 <use transform="scale(0.707)" xlink:href="#E1-MJMATHI-6D" x="0" y="0"></use>
 <use transform="scale(0.707)" xlink:href="#E1-MJMAIN-3D" x="878" y="0"></use>
 <use transform="scale(0.707)" xlink:href="#E1-MJMAIN-31" x="1657" y="0"></use>
</g>
 <use transform="scale(0.707)" xlink:href="#E1-MJMATHI-6E" x="778" y="1627"></use>
</g>
<g transform="translate(4076,0)">
 <use xlink:href="#E1-MJMATHI-76" x="0" y="0"></use>
 <use transform="scale(0.707)" xlink:href="#E1-MJMATHI-6D" x="686" y="-213"></use>
</g>
 <use xlink:href="#E1-MJMAIN-3D" x="5560" y="0"></use>
</g>
<g transform="translate(0,3001)">
 <use xlink:href="#E1-MJMAIN-3D" x="277" y="0"></use>
<g transform="translate(1056,0)">
<g transform="translate(397,0)">
<rect stroke="none" width="643" height="60" x="0" y="220"></rect>
 <use xlink:href="#E1-MJMAIN-31" x="71" y="676"></use>
 <use xlink:href="#E1-MJMATHI-64" x="60" y="-715"></use>
</g>
</g>
<g transform="translate(2384,0)">
 <use xlink:href="#E1-MJSZ2-2211" x="40" y="0"></use>
<g transform="translate(0,-1090)">
 <use transform="scale(0.707)" xlink:href="#E1-MJMATHI-6D" x="0" y="0"></use>
 <use transform="scale(0.707)" xlink:href="#E1-MJMAIN-3D" x="878" y="0"></use>
 <use transform="scale(0.707)" xlink:href="#E1-MJMAIN-31" x="1657" y="0"></use>
</g>
 <use transform="scale(0.707)" xlink:href="#E1-MJMATHI-6E" x="778" y="1627"></use>
</g>
<g transform="translate(4076,0)">
 <use xlink:href="#E1-MJSZ3-28"></use>
<g transform="translate(736,0)">
 <use xlink:href="#E1-MJMATHI-64" x="0" y="0"></use>
 <use transform="scale(0.707)" xlink:href="#E1-MJMATHI-6D" x="741" y="583"></use>
</g>
<g transform="translate(1982,0)">
 <use xlink:href="#E1-MJMATHI-76" x="0" y="0"></use>
 <use transform="scale(0.707)" xlink:href="#E1-MJMAIN-30" x="686" y="-213"></use>
</g>
 <use xlink:href="#E1-MJMAIN-2B" x="3143" y="0"></use>
<g transform="translate(3922,0)">
<g transform="translate(342,0)">
<rect stroke="none" width="3089" height="60" x="0" y="220"></rect>
<g transform="translate(60,676)">
 <use xlink:href="#E1-MJMAIN-31" x="0" y="0"></use>
 <use xlink:href="#E1-MJMAIN-2212" x="722" y="0"></use>
<g transform="translate(1723,0)">
 <use xlink:href="#E1-MJMATHI-64" x="0" y="0"></use>
 <use transform="scale(0.707)" xlink:href="#E1-MJMATHI-6D" x="741" y="513"></use>
</g>
</g>
<g transform="translate(421,-715)">
 <use xlink:href="#E1-MJMAIN-31" x="0" y="0"></use>
 <use xlink:href="#E1-MJMAIN-2212" x="722" y="0"></use>
 <use xlink:href="#E1-MJMATHI-64" x="1723" y="0"></use>
</g>
</g>
</g>
 <use xlink:href="#E1-MJMATHI-64" x="7473" y="0"></use>
 <use xlink:href="#E1-MJMATHI-61" x="7997" y="0"></use>
 <use xlink:href="#E1-MJSZ3-29" x="8526" y="-1"></use>
</g>
 <use xlink:href="#E1-MJMAIN-3D" x="13617" y="0"></use>
</g>
<g transform="translate(0,-247)">
 <use xlink:href="#E1-MJMAIN-3D" x="277" y="0"></use>
<g transform="translate(1056,0)">
<g transform="translate(397,0)">
<rect stroke="none" width="643" height="60" x="0" y="220"></rect>
 <use xlink:href="#E1-MJMAIN-31" x="71" y="676"></use>
 <use xlink:href="#E1-MJMATHI-64" x="60" y="-715"></use>
</g>
</g>
<g transform="translate(2217,0)">
 <use xlink:href="#E1-MJSZ4-28"></use>
<g transform="translate(792,0)">
 <use xlink:href="#E1-MJSZ3-28"></use>
<g transform="translate(736,0)">
<g transform="translate(120,0)">
<rect stroke="none" width="3796" height="60" x="0" y="220"></rect>
<g transform="translate(60,676)">
 <use xlink:href="#E1-MJMAIN-31" x="0" y="0"></use>
 <use xlink:href="#E1-MJMAIN-2212" x="722" y="0"></use>
<g transform="translate(1723,0)">
 <use xlink:href="#E1-MJMATHI-64" x="0" y="0"></use>
<g transform="translate(524,362)">
 <use transform="scale(0.707)" xlink:href="#E1-MJMATHI-6E" x="0" y="0"></use>
 <use transform="scale(0.707)" xlink:href="#E1-MJMAIN-2B" x="600" y="0"></use>
 <use transform="scale(0.707)" xlink:href="#E1-MJMAIN-31" x="1379" y="0"></use>
</g>
</g>
</g>
<g transform="translate(774,-715)">
 <use xlink:href="#E1-MJMAIN-31" x="0" y="0"></use>
 <use xlink:href="#E1-MJMAIN-2212" x="722" y="0"></use>
 <use xlink:href="#E1-MJMATHI-64" x="1723" y="0"></use>
</g>
</g>
</g>
 <use xlink:href="#E1-MJMAIN-2212" x="4995" y="0"></use>
 <use xlink:href="#E1-MJMAIN-31" x="5996" y="0"></use>
 <use xlink:href="#E1-MJSZ3-29" x="6496" y="-1"></use>
</g>
<g transform="translate(8192,0)">
 <use xlink:href="#E1-MJMATHI-76" x="0" y="0"></use>
 <use transform="scale(0.707)" xlink:href="#E1-MJMAIN-30" x="686" y="-213"></use>
</g>
 <use xlink:href="#E1-MJMAIN-2B" x="9354" y="0"></use>
<g transform="translate(10354,0)">
 <use xlink:href="#E1-MJSZ4-28"></use>
<g transform="translate(792,0)">
 <use xlink:href="#E1-MJSZ2-2211" x="40" y="0"></use>
<g transform="translate(0,-1090)">
 <use transform="scale(0.707)" xlink:href="#E1-MJMATHI-6D" x="0" y="0"></use>
 <use transform="scale(0.707)" xlink:href="#E1-MJMAIN-3D" x="878" y="0"></use>
 <use transform="scale(0.707)" xlink:href="#E1-MJMAIN-31" x="1657" y="0"></use>
</g>
 <use transform="scale(0.707)" xlink:href="#E1-MJMATHI-6E" x="778" y="1627"></use>
</g>
 <use xlink:href="#E1-MJMAIN-31" x="2484" y="0"></use>
 <use xlink:href="#E1-MJMAIN-2212" x="3207" y="0"></use>
<g transform="translate(4208,0)">
 <use xlink:href="#E1-MJSZ2-2211" x="40" y="0"></use>
<g transform="translate(0,-1090)">
 <use transform="scale(0.707)" xlink:href="#E1-MJMATHI-6D" x="0" y="0"></use>
 <use transform="scale(0.707)" xlink:href="#E1-MJMAIN-3D" x="878" y="0"></use>
 <use transform="scale(0.707)" xlink:href="#E1-MJMAIN-31" x="1657" y="0"></use>
</g>
 <use transform="scale(0.707)" xlink:href="#E1-MJMATHI-6E" x="778" y="1627"></use>
</g>
<g transform="translate(5900,0)">
 <use xlink:href="#E1-MJMATHI-64" x="0" y="0"></use>
 <use transform="scale(0.707)" xlink:href="#E1-MJMATHI-6D" x="741" y="583"></use>
</g>
 <use xlink:href="#E1-MJSZ4-29" x="7146" y="0"></use>
</g>
<g transform="translate(18293,0)">
<g transform="translate(286,0)">
<rect stroke="none" width="2366" height="60" x="0" y="220"></rect>
 <use xlink:href="#E1-MJMATHI-64" x="921" y="676"></use>
<g transform="translate(60,-715)">
 <use xlink:href="#E1-MJMAIN-31" x="0" y="0"></use>
 <use xlink:href="#E1-MJMAIN-2212" x="722" y="0"></use>
 <use xlink:href="#E1-MJMATHI-64" x="1723" y="0"></use>
</g>
</g>
</g>
 <use xlink:href="#E1-MJMATHI-61" x="21067" y="0"></use>
 <use xlink:href="#E1-MJSZ4-29" x="21596" y="0"></use>
</g>
 <use xlink:href="#E1-MJMAIN-3D" x="24884" y="0"></use>
</g>
<g transform="translate(0,-3309)">
 <use xlink:href="#E1-MJMAIN-3D" x="277" y="0"></use>
<g transform="translate(1056,0)">
<g transform="translate(397,0)">
<rect stroke="none" width="643" height="60" x="0" y="220"></rect>
 <use xlink:href="#E1-MJMAIN-31" x="71" y="676"></use>
 <use xlink:href="#E1-MJMATHI-64" x="60" y="-715"></use>
</g>
</g>
<g transform="translate(2217,0)">
 <use xlink:href="#E1-MJSZ3-28"></use>
<g transform="translate(736,0)">
<g transform="translate(120,0)">
<rect stroke="none" width="2892" height="60" x="0" y="220"></rect>
<g transform="translate(60,676)">
 <use xlink:href="#E1-MJMAIN-31" x="0" y="0"></use>
 <use xlink:href="#E1-MJMAIN-2212" x="722" y="0"></use>
<g transform="translate(1723,0)">
 <use xlink:href="#E1-MJMATHI-64" x="0" y="0"></use>
 <use transform="scale(0.707)" xlink:href="#E1-MJMATHI-6E" x="741" y="513"></use>
</g>
</g>
<g transform="translate(322,-715)">
 <use xlink:href="#E1-MJMAIN-31" x="0" y="0"></use>
 <use xlink:href="#E1-MJMAIN-2212" x="722" y="0"></use>
 <use xlink:href="#E1-MJMATHI-64" x="1723" y="0"></use>
</g>
</g>
</g>
 <use xlink:href="#E1-MJMATHI-64" x="3869" y="0"></use>
<g transform="translate(4392,0)">
 <use xlink:href="#E1-MJMATHI-76" x="0" y="0"></use>
 <use transform="scale(0.707)" xlink:href="#E1-MJMAIN-30" x="686" y="-213"></use>
</g>
 <use xlink:href="#E1-MJMAIN-2B" x="5554" y="0"></use>
<g transform="translate(6554,0)">
 <use xlink:href="#E1-MJSZ3-28"></use>
 <use xlink:href="#E1-MJMATHI-6E" x="736" y="0"></use>
 <use xlink:href="#E1-MJMAIN-2212" x="1559" y="0"></use>
<g transform="translate(2559,0)">
 <use xlink:href="#E1-MJSZ3-28"></use>
<g transform="translate(736,0)">
<g transform="translate(120,0)">
<rect stroke="none" width="3993" height="60" x="0" y="220"></rect>
<g transform="translate(60,676)">
 <use xlink:href="#E1-MJMAIN-31" x="0" y="0"></use>
 <use xlink:href="#E1-MJMAIN-2212" x="722" y="0"></use>
<g transform="translate(1723,0)">
 <use xlink:href="#E1-MJMATHI-64" x="0" y="0"></use>
<g transform="translate(524,362)">
 <use transform="scale(0.707)" xlink:href="#E1-MJMATHI-6D" x="0" y="0"></use>
 <use transform="scale(0.707)" xlink:href="#E1-MJMAIN-2B" x="878" y="0"></use>
 <use transform="scale(0.707)" xlink:href="#E1-MJMAIN-31" x="1657" y="0"></use>
</g>
</g>
</g>
<g transform="translate(873,-715)">
 <use xlink:href="#E1-MJMAIN-31" x="0" y="0"></use>
 <use xlink:href="#E1-MJMAIN-2212" x="722" y="0"></use>
 <use xlink:href="#E1-MJMATHI-64" x="1723" y="0"></use>
</g>
</g>
</g>
 <use xlink:href="#E1-MJMAIN-2212" x="5192" y="0"></use>
 <use xlink:href="#E1-MJMAIN-31" x="6192" y="0"></use>
 <use xlink:href="#E1-MJSZ3-29" x="6693" y="-1"></use>
</g>
 <use xlink:href="#E1-MJSZ3-29" x="9989" y="-1"></use>
</g>
<g transform="translate(17281,0)">
<g transform="translate(286,0)">
<rect stroke="none" width="2366" height="60" x="0" y="220"></rect>
 <use xlink:href="#E1-MJMATHI-64" x="921" y="676"></use>
<g transform="translate(60,-715)">
 <use xlink:href="#E1-MJMAIN-31" x="0" y="0"></use>
 <use xlink:href="#E1-MJMAIN-2212" x="722" y="0"></use>
 <use xlink:href="#E1-MJMATHI-64" x="1723" y="0"></use>
</g>
</g>
</g>
 <use xlink:href="#E1-MJMATHI-61" x="20054" y="0"></use>
 <use xlink:href="#E1-MJSZ3-29" x="20584" y="-1"></use>
</g>
 <use xlink:href="#E1-MJMAIN-3D" x="23816" y="0"></use>
</g>
<g transform="translate(0,-6071)">
 <use xlink:href="#E1-MJMAIN-3D" x="277" y="0"></use>
<g transform="translate(1056,0)">
<g transform="translate(397,0)">
<rect stroke="none" width="2892" height="60" x="0" y="220"></rect>
<g transform="translate(60,676)">
 <use xlink:href="#E1-MJMAIN-31" x="0" y="0"></use>
 <use xlink:href="#E1-MJMAIN-2212" x="722" y="0"></use>
<g transform="translate(1723,0)">
 <use xlink:href="#E1-MJMATHI-64" x="0" y="0"></use>
 <use transform="scale(0.707)" xlink:href="#E1-MJMATHI-6E" x="741" y="513"></use>
</g>
</g>
<g transform="translate(322,-715)">
 <use xlink:href="#E1-MJMAIN-31" x="0" y="0"></use>
 <use xlink:href="#E1-MJMAIN-2212" x="722" y="0"></use>
 <use xlink:href="#E1-MJMATHI-64" x="1723" y="0"></use>
</g>
</g>
</g>
<g transform="translate(4466,0)">
 <use xlink:href="#E1-MJMATHI-76" x="0" y="0"></use>
 <use transform="scale(0.707)" xlink:href="#E1-MJMAIN-30" x="686" y="-213"></use>
</g>
 <use xlink:href="#E1-MJMAIN-2B" x="5628" y="0"></use>
<g transform="translate(6628,0)">
 <use xlink:href="#E1-MJSZ3-28"></use>
 <use xlink:href="#E1-MJMATHI-6E" x="736" y="0"></use>
 <use xlink:href="#E1-MJMAIN-2212" x="1559" y="0"></use>
<g transform="translate(2559,0)">
 <use xlink:href="#E1-MJSZ3-28"></use>
<g transform="translate(736,0)">
<g transform="translate(120,0)">
<rect stroke="none" width="3796" height="60" x="0" y="220"></rect>
<g transform="translate(60,676)">
 <use xlink:href="#E1-MJMAIN-31" x="0" y="0"></use>
 <use xlink:href="#E1-MJMAIN-2212" x="722" y="0"></use>
<g transform="translate(1723,0)">
 <use xlink:href="#E1-MJMATHI-64" x="0" y="0"></use>
<g transform="translate(524,362)">
 <use transform="scale(0.707)" xlink:href="#E1-MJMATHI-6E" x="0" y="0"></use>
 <use transform="scale(0.707)" xlink:href="#E1-MJMAIN-2B" x="600" y="0"></use>
 <use transform="scale(0.707)" xlink:href="#E1-MJMAIN-31" x="1379" y="0"></use>
</g>
</g>
</g>
<g transform="translate(774,-715)">
 <use xlink:href="#E1-MJMAIN-31" x="0" y="0"></use>
 <use xlink:href="#E1-MJMAIN-2212" x="722" y="0"></use>
 <use xlink:href="#E1-MJMATHI-64" x="1723" y="0"></use>
</g>
</g>
</g>
 <use xlink:href="#E1-MJMAIN-2212" x="4995" y="0"></use>
 <use xlink:href="#E1-MJMAIN-31" x="5996" y="0"></use>
 <use xlink:href="#E1-MJSZ3-29" x="6496" y="-1"></use>
</g>
 <use xlink:href="#E1-MJSZ3-29" x="9793" y="-1"></use>
</g>
<g transform="translate(17158,0)">
<g transform="translate(286,0)">
<rect stroke="none" width="2366" height="60" x="0" y="220"></rect>
 <use xlink:href="#E1-MJMAIN-31" x="933" y="676"></use>
<g transform="translate(60,-715)">
 <use xlink:href="#E1-MJMAIN-31" x="0" y="0"></use>
 <use xlink:href="#E1-MJMAIN-2212" x="722" y="0"></use>
 <use xlink:href="#E1-MJMATHI-64" x="1723" y="0"></use>
</g>
</g>
</g>
 <use xlink:href="#E1-MJMATHI-61" x="19932" y="0"></use>
 <use xlink:href="#E1-MJMAIN-3D" x="20739" y="0"></use>
</g>
<g transform="translate(0,-8772)">
 <use xlink:href="#E1-MJMAIN-3D" x="277" y="0"></use>
<g transform="translate(1056,0)">
<g transform="translate(397,0)">
<rect stroke="none" width="2892" height="60" x="0" y="220"></rect>
<g transform="translate(60,676)">
 <use xlink:href="#E1-MJMAIN-31" x="0" y="0"></use>
 <use xlink:href="#E1-MJMAIN-2212" x="722" y="0"></use>
<g transform="translate(1723,0)">
 <use xlink:href="#E1-MJMATHI-64" x="0" y="0"></use>
 <use transform="scale(0.707)" xlink:href="#E1-MJMATHI-6E" x="741" y="513"></use>
</g>
</g>
<g transform="translate(322,-715)">
 <use xlink:href="#E1-MJMAIN-31" x="0" y="0"></use>
 <use xlink:href="#E1-MJMAIN-2212" x="722" y="0"></use>
 <use xlink:href="#E1-MJMATHI-64" x="1723" y="0"></use>
</g>
</g>
</g>
<g transform="translate(4466,0)">
 <use xlink:href="#E1-MJMATHI-76" x="0" y="0"></use>
 <use transform="scale(0.707)" xlink:href="#E1-MJMAIN-30" x="686" y="-213"></use>
</g>
 <use xlink:href="#E1-MJMAIN-2B" x="5628" y="0"></use>
<g transform="translate(6628,0)">
 <use xlink:href="#E1-MJSZ3-28"></use>
 <use xlink:href="#E1-MJMATHI-6E" x="736" y="0"></use>
 <use xlink:href="#E1-MJMAIN-2212" x="1559" y="0"></use>
<g transform="translate(2337,0)">
<g transform="translate(342,0)">
<rect stroke="none" width="2892" height="60" x="0" y="220"></rect>
<g transform="translate(60,676)">
 <use xlink:href="#E1-MJMAIN-31" x="0" y="0"></use>
 <use xlink:href="#E1-MJMAIN-2212" x="722" y="0"></use>
<g transform="translate(1723,0)">
 <use xlink:href="#E1-MJMATHI-64" x="0" y="0"></use>
 <use transform="scale(0.707)" xlink:href="#E1-MJMATHI-6E" x="741" y="513"></use>
</g>
</g>
<g transform="translate(322,-715)">
 <use xlink:href="#E1-MJMAIN-31" x="0" y="0"></use>
 <use xlink:href="#E1-MJMAIN-2212" x="722" y="0"></use>
 <use xlink:href="#E1-MJMATHI-64" x="1723" y="0"></use>
</g>
</g>
</g>
 <use xlink:href="#E1-MJMATHI-64" x="5692" y="0"></use>
 <use xlink:href="#E1-MJSZ3-29" x="6215" y="-1"></use>
</g>
<g transform="translate(13581,0)">
<g transform="translate(286,0)">
<rect stroke="none" width="2366" height="60" x="0" y="220"></rect>
 <use xlink:href="#E1-MJMAIN-31" x="933" y="676"></use>
<g transform="translate(60,-715)">
 <use xlink:href="#E1-MJMAIN-31" x="0" y="0"></use>
 <use xlink:href="#E1-MJMAIN-2212" x="722" y="0"></use>
 <use xlink:href="#E1-MJMATHI-64" x="1723" y="0"></use>
</g>
</g>
</g>
 <use xlink:href="#E1-MJMATHI-61" x="16354" y="0"></use>
 <use xlink:href="#E1-MJMAIN-3D" x="17162" y="0"></use>
</g>
<g transform="translate(0,-12064)">
 <use xlink:href="#E1-MJMAIN-3D" x="277" y="0"></use>
<g transform="translate(1056,0)">
<g transform="translate(397,0)">
<rect stroke="none" width="2892" height="60" x="0" y="220"></rect>
<g transform="translate(60,676)">
 <use xlink:href="#E1-MJMAIN-31" x="0" y="0"></use>
 <use xlink:href="#E1-MJMAIN-2212" x="722" y="0"></use>
<g transform="translate(1723,0)">
 <use xlink:href="#E1-MJMATHI-64" x="0" y="0"></use>
 <use transform="scale(0.707)" xlink:href="#E1-MJMATHI-6E" x="741" y="513"></use>
</g>
</g>
<g transform="translate(322,-715)">
 <use xlink:href="#E1-MJMAIN-31" x="0" y="0"></use>
 <use xlink:href="#E1-MJMAIN-2212" x="722" y="0"></use>
 <use xlink:href="#E1-MJMATHI-64" x="1723" y="0"></use>
</g>
</g>
</g>
<g transform="translate(4466,0)">
 <use xlink:href="#E1-MJMATHI-76" x="0" y="0"></use>
 <use transform="scale(0.707)" xlink:href="#E1-MJMAIN-30" x="686" y="-213"></use>
</g>
 <use xlink:href="#E1-MJMAIN-2B" x="5628" y="0"></use>
<g transform="translate(6406,0)">
<g transform="translate(342,0)">
<rect stroke="none" width="4517" height="60" x="0" y="220"></rect>
<g transform="translate(60,1014)">
 <use xlink:href="#E1-MJMATHI-6E" x="0" y="0"></use>
 <use xlink:href="#E1-MJMAIN-2212" x="822" y="0"></use>
<g transform="translate(1601,0)">
<g transform="translate(342,0)">
<rect stroke="none" width="1810" height="60" x="0" y="220"></rect>
<g transform="translate(60,503)">
 <use transform="scale(0.707)" xlink:href="#E1-MJMAIN-31" x="0" y="0"></use>
 <use transform="scale(0.707)" xlink:href="#E1-MJMAIN-2212" x="500" y="0"></use>
<g transform="translate(904,0)">
 <use transform="scale(0.707)" xlink:href="#E1-MJMATHI-64" x="0" y="0"></use>
 <use transform="scale(0.574)" xlink:href="#E1-MJMATHI-6E" x="646" y="469"></use>
</g>
</g>
<g transform="translate(268,-436)">
 <use transform="scale(0.707)" xlink:href="#E1-MJMAIN-31" x="0" y="0"></use>
 <use transform="scale(0.707)" xlink:href="#E1-MJMAIN-2212" x="500" y="0"></use>
 <use transform="scale(0.707)" xlink:href="#E1-MJMATHI-64" x="1279" y="0"></use>
</g>
</g>
</g>
 <use xlink:href="#E1-MJMATHI-64" x="3874" y="0"></use>
</g>
<g transform="translate(1135,-715)">
 <use xlink:href="#E1-MJMAIN-31" x="0" y="0"></use>
 <use xlink:href="#E1-MJMAIN-2212" x="722" y="0"></use>
 <use xlink:href="#E1-MJMATHI-64" x="1723" y="0"></use>
</g>
</g>
</g>
 <use xlink:href="#E1-MJMATHI-61" x="11386" y="0"></use>
</g>
</g>
</g>
</g>
</svg>
